# xmcd
#
# Track frame offsets: 
#        150
#        14952
#        34190
#        44981
#        60132
#        76186
#        98350
#        110878
#        125314
#        142235
#
# Disc length: 2096 seconds
#
# Revision: 0
# Processed by: cddbd v1.5.2PL0 Copyright (c) Steve Scherf et al.
# Submitted via: ExactAudioCopy v0.99pb5
#
DISCID=8a082e0a
DTITLE=Bunnyranch - If You Missed The Last Train...
DYEAR=2010
DGENRE=Blues
TTITLE0=Free To Shake, Free To Brake
TTITLE1=No Crime Scene
TTITLE2=You Can Read...
TTITLE3=I Can't Set Myself Free
TTITLE4=Where Am I? Where Are You?
TTITLE5=Go Away, Keep Away
TTITLE6=Let's Beat'Em All
TTITLE7=Parasite, Poor Mind
TTITLE8=Don't Dance To This Song
TTITLE9=Join The Team
EXTD=
EXTT0=
EXTT1=
EXTT2=
EXTT3=
EXTT4=
EXTT5=
EXTT6=
EXTT7=
EXTT8=
EXTT9=
PLAYORDER=
